<svg version="1.1" xmlns="http://www.w3.org/2000/svg" xmlns:xlink="http://www.w3.org/1999/xlink" x="28" y="24" viewBox="0 0 28 24" width="28px" height="24px" xml:space="preserve" class="moneyIco"><path d="M4.1,1.8C4.4,0.4,4.9,0,6.2,0c3,0,6,0,9,0c1.4,0,1.7,0.2,2.2,1.5c0,0.1,0.3,0.2,0.4,0.2c1,0,2.1,0,3.1,0
                    c1.5,0,2.1,0.6,2.1,2.1c0,0.9,0,1.7,0,2.6c0,0,0,0.1,0.1,0.2c0.3,0,0.6,0,0.9,0c1.1,0,1.8,0.7,1.8,1.7c0,1.4,0,2.9,0,4.3                                 c0,1-0.6,1.6-1.7,1.7c-0.3,0-0.7,0-1.1,0c0,0.8,0,1.6,0,2.4c0,1.5-0.5,2-2,2c-6.4,0-12.7,0-19.1,0c-1.4,0-2-0.5-2-2
                    c0-4.3,0-8.7,0-13c0-0.1,0-0.1,0-0.2c0-1.2,0.6-1.8,1.8-1.8C2.6,1.7,3.3,1.8,4.1,1.8z M2,2.5C1.1,2.4,0.7,2.7,0.7,3.7
                    c0,4.4,0,8.8,0,13.2c0,0.1,0,0.2,0,0.3C0.8,17.7,1,18,1.6,18.1c0.2,0,0.4,0,0.7,0c6.2,0,12.4,0,18.6,0c0.2,0,0.5,0,0.7,0
                    c0.4-0.1,0.8-0.3,0.8-0.7c0-1,0-1.9,0-3c-0.2,0-0.4,0-0.6,0c-1.5,0-3,0-4.6,0c-1.4,0-2-0.7-2-2c0-0.6,0-1.3,0-1.9c0-1.3,0.7-2,2-2
                    c1.3,0,2.6,0,3.9,0c0.5,0,0.9,0,1.4,0c0-0.8,0-1.6,0-2.4C22.4,5.4,22,5,21.2,5c-3.2,0-6.4,0-9.6,0C9,5,6.3,5,3.6,5
                    C2.7,5,2.1,4.6,2,3.9C1.9,3.4,2,2.9,2,2.5z M23.1,8.5c0.2,0,0.4,0,0.5,0c0.2,0,0.5,0,0.5,0.3c0,0.3-0.3,0.3-0.5,0.3
                    c-1,0-2.1,0-3.1,0c-1.1,0-2.3,0-3.4,0c-0.9,0-1.3,0.4-1.3,1.3c0,0.6,0,1.3,0,1.9c0,0.9,0.4,1.3,1.3,1.3c0.8,0,1.7,0,2.5,0
                    c1.4,0,2.8,0,4.2,0c0.8,0,1.2-0.3,1.2-1.1c0-1.4,0-2.8,0-4.3c0-0.5-0.3-0.9-0.8-1c-0.4-0.1-0.8-0.1-1.2-0.1
                    C23.1,7.7,23.1,8.1,23.1,8.5z M4.8,4.3c2.1,0,4,0,6.1,0c0-0.1,0-0.3,0-0.4c0-1.6,0.6-2.2,2.2-2.2c0.9,0,1.9,0,2.8,0
                    c0.3,0,0.6,0,0.8,0c-0.2-0.8-0.5-1.1-1.4-1.1c-3.1,0-6.1,0-9.2,0c-0.1,0-0.2,0-0.4,0c-0.6,0.1-1,0.4-1,1C4.7,2.6,4.8,3.4,4.8,4.3z
                     M11.6,4.3c2.6,0,5.3,0,7.9,0C19.6,3,19.2,2.4,18,2.4c-1.6,0-3.3,0-4.9,0C11.8,2.4,11.3,3.1,11.6,4.3z M20,2.4
                    c0.1,0.6,0.2,1.2,0.3,1.8c0.7,0.1,1.4,0.1,2.1,0.2c0-0.3,0-0.6,0-0.9c0-0.7-0.4-1-1.1-1.1C20.8,2.4,20.4,2.4,20,2.4z M4.1,2.5
                    C3.5,2.4,3,2.4,2.7,2.9C2.5,3.3,2.5,3.7,2.8,4c0.3,0.4,0.8,0.4,1.3,0.3C4.1,3.7,4.1,3.1,4.1,2.5z"></path> <path d="M18.5,12.9c-0.8,0-1.4-0.6-1.4-1.4c0-0.8,0.5-1.4,1.4-1.4c0.8,0,1.5,0.6,1.5,1.4C20,12.3,19.3,12.9,18.5,12.9z
                     M18.5,10.8c-0.4,0-0.7,0.3-0.7,0.7c0,0.4,0.3,0.8,0.7,0.8c0.4,0,0.8-0.4,0.8-0.7C19.3,11.1,19,10.8,18.5,10.8z"></path></svg>