<svg version="1.1" xmlns="http://www.w3.org/2000/svg" width="43" height="34" viewBox="0 0 43 34.2" enable-background="new 0 0 43 34.2"><g><path fill="#DDECEF" d="M39.2,27.8c-1.6,0-3.7-0.5-5.1-0.9c-5.9-1.7-12-3.4-17.8-5c-2.8-0.8-5.6-1.5-8.4-2.3
                        c-1.8-0.5-5.2-4.8-7-8.1l14,3.5l0.6-13.6l1.9-0.7c0.6,1.3,1.2,2.5,1.8,3.8c1.7,3.6,3.4,7.4,5.1,11.2c0.7,1.5,1.7,2.4,3.2,2.8
                        c4.1,1,8.2,2.2,11.7,3.1c2,0.6,3,1.6,3.4,3.4c-0.1,0.2-0.3,0.5-0.4,0.9c-0.2,0.5-0.6,1.2-0.8,1.4C40.9,27.6,40.2,27.8,39.2,27.8z"></path> <g><path fill="#1B9CC6" d="M17.1,1.3c0.5,1.1,1,2.3,1.6,3.4c1.7,3.6,3.4,7.4,5.1,11.2c0.7,1.7,1.9,2.6,3.5,3.1
                            c4.1,1,8.2,2.2,11.6,3.1c1.7,0.5,2.7,1.3,3,2.8c-0.1,0.2-0.2,0.5-0.4,0.7c-0.2,0.4-0.6,1.1-0.7,1.3c-0.3,0.3-0.9,0.4-1.7,0.4
                            c-1.6,0-3.6-0.5-5-0.9c-5.9-1.7-12-3.4-17.8-5c-2.8-0.8-5.6-1.5-8.4-2.3c-1.4-0.4-4.3-3.7-6.1-6.9l2.6,0.7l9.7,2.4l1.2,0.3
                            l0.1-1.2l0.3-6.9L16,1.7l0,0L17.1,1.3 M17.6,0c-1,0.4-1.8,0.7-2.6,1c-0.2,4.5-0.4,8.8-0.6,13.3C9.6,13.1,4.9,11.9,0,10.7
                            c1.5,3.4,5.4,8.7,7.7,9.4c8.7,2.4,17.5,4.8,26.2,7.3c1.5,0.4,3.6,1,5.3,1c1,0,1.9-0.2,2.4-0.7c0.4-0.5,1.1-2,1.4-2.6
                            c-0.4-2.4-1.9-3.4-3.8-4c-3.9-1.1-7.8-2.2-11.7-3.2c-1.3-0.3-2.2-1.1-2.8-2.5C22.4,10.2,20,5.1,17.6,0L17.6,0z"></path></g></g> <g><path fill="#1B9CC6" d="M1.2,3.5L1.2,3.5c0.2,0,0.7,0,1,1.4c0.4,1.4,0.9,2.8,1.5,4.2C3.8,9.3,3.9,9.5,4,9.7C2.9,9.5,2,9.3,1.2,9
                        C1.1,8.9,1,8.5,1,8.2C0.9,7,0.9,5.8,1,4.6c0-0.4,0-0.8,0-1.2C1.1,3.5,1.1,3.5,1.2,3.5 M1.2,2.7c-0.2,0-0.5,0-0.7,0.1
                        C0.4,2.9,0.3,3.1,0.2,3.2c0,1.7-0.1,3.4,0,5c0,0.6,0.3,1.4,0.6,1.5c1.3,0.5,2.7,0.7,4.4,1.1C4.4,8.5,3.6,6.6,3,4.6
                        C2.7,3.4,2.2,2.7,1.2,2.7L1.2,2.7z"></path></g> <line fill="none" stroke="#1B9CC6" stroke-miterlimit="10" x1="4.2" y1="33.7" x2="40.6" y2="33.7"></line> <circle fill="none" stroke="#1B9CC6" stroke-width="0.8" stroke-miterlimit="10" cx="21.7" cy="24.7" r="1.5"></circle> <circle fill="none" stroke="#1B9CC6" stroke-width="0.8" stroke-miterlimit="10" cx="17.7" cy="23.7" r="1.5"></circle></svg>