<svg version="1.1" xmlns="http://www.w3.org/2000/svg" width="46px" height="34px" viewBox="0 0 46.7 34" enable-background="new 0 0 46.7 34"><g><path fill="#DDECEF" d="M13.3,26.9c-2.4,0-6.7-1.5-9.4-3l13.6-4.9L10.4,7.3l1.2-1.6c1.2,0.7,2.4,1.4,3.6,2.1
                            c3.5,2.1,7,4.2,10.5,6.4c0.9,0.6,1.7,0.8,2.6,0.8c0.5,0,1.1-0.1,1.6-0.3c4-1.5,8-2.8,11.4-3.9c0.7-0.2,1.3-0.3,1.9-0.3
                            c1.1,0,2,0.4,2.8,1.2c0,0.3,0.1,0.6,0.1,1c0.1,0.6,0.2,1.3,0.1,1.6c-0.2,1.2-2.3,2.5-6.2,3.7C34.2,20,28.2,22,22.5,24
                            c-2.8,0.9-5.5,1.9-8.3,2.8C14,26.8,13.7,26.9,13.3,26.9z"></path> <g><path fill="#1B9CC6" d="M11.7,6.4c1.1,0.6,2.1,1.3,3.2,1.9c3.4,2.1,7,4.2,10.5,6.4c1,0.6,1.9,0.9,2.8,0.9c0.6,0,1.2-0.1,1.8-0.3
                                c3.9-1.4,8-2.8,11.4-3.9c0.6-0.2,1.2-0.3,1.7-0.3c0.9,0,1.6,0.3,2.4,1c0,0.2,0.1,0.5,0.1,0.8c0.1,0.4,0.2,1.3,0.1,1.5
                                c-0.1,0.6-1,1.8-5.8,3.3c-5.9,1.9-11.8,3.9-17.6,5.9c-2.7,0.9-5.5,1.8-8.2,2.8c-0.1,0-0.4,0.1-0.8,0.1c-2,0-5.5-1.1-8.1-2.4
                                l2.4-0.9l9.5-3.5l1.2-0.4l-0.6-1l-4.8-7.8l-1.8-3L11.7,6.4 M11.4,5c-0.6,0.8-1.1,1.6-1.7,2.3c2.4,3.8,4.6,7.5,7,11.4
                                c-4.7,1.7-9.2,3.4-14,5.1c2.7,1.7,7.7,3.6,10.5,3.6c0.4,0,0.8,0,1.1-0.1c8.6-2.9,17.2-5.8,25.8-8.6c2.4-0.8,6.2-2.2,6.5-4.1
                                c0.1-0.6-0.3-2.3-0.3-2.9c-1.1-1.1-2.2-1.5-3.3-1.5c-0.7,0-1.3,0.1-2,0.4c-3.8,1.3-7.7,2.5-11.4,3.9c-0.5,0.2-1,0.3-1.5,0.3
                                c-0.7,0-1.5-0.2-2.3-0.7C21.1,10.8,16.2,8,11.4,5L11.4,5z"></path></g></g> <g><path fill="#1B9CC6" d="M1.4,16.7L1.4,16.7c0.3,0,0.7,0.2,1.3,0.7c1.1,1,2.3,1.8,3.6,2.7c0.2,0.1,0.4,0.3,0.6,0.4
                            c-1,0.4-1.9,0.7-2.7,1c-0.1-0.1-0.4-0.3-0.6-0.6c-0.7-0.9-1.4-2-2-3c-0.2-0.3-0.4-0.6-0.6-1C1.1,16.7,1.3,16.7,1.4,16.7 M1.4,15.9
                            c-0.5,0-0.9,0.2-1.4,0.8c0,0.2,0,0.3,0,0.5c0.9,1.4,1.8,2.9,2.8,4.2c0.3,0.4,0.9,0.9,1.3,0.9c0,0,0.1,0,0.1,0
                            c1.3-0.3,2.6-0.9,4.3-1.6c-2-1.4-3.7-2.5-5.3-3.9C2.5,16.3,1.9,15.9,1.4,15.9L1.4,15.9z"></path></g> <line fill="none" stroke="#1B9CC6" stroke-miterlimit="10" x1="5.6" y1="33.8" x2="42" y2="33.8"></line> <circle fill="none" stroke="#1B9CC6" stroke-width="0.8" stroke-miterlimit="10" cx="30.2" cy="22.8" r="1.5"></circle> <circle fill="none" stroke="#1B9CC6" stroke-width="0.8" stroke-miterlimit="10" cx="27.2" cy="23.8" r="1.5"></circle></svg>