<svg version="1.1" xmlns="http://www.w3.org/2000/svg" width="44px" height="34px" viewBox="0 0 44 34" enable-background="new 0 0 44 34"><g><polygon fill="#DDECEF" points="15.5,33.7 15.5,15.3 27.5,7.8 39.5,15.3 39.5,33.7    "></polygon> <g><path fill="#1B9CC6" d="M27.5,8.4L39,15.5v17.7H16V15.5L27.5,8.4 M27.5,7.2L15,15v19.3h25V15L27.5,7.2L27.5,7.2z"></path></g></g> <polyline fill="none" stroke="#1B9CC6" stroke-linecap="round" stroke-miterlimit="10" points="43.5,14.7 27.5,4.2 11.5,14.7 "></polyline> <rect x="0.5" y="24.7" fill="#DDECEF" stroke="#1B9CC6" stroke-linecap="round" stroke-miterlimit="10" width="11" height="9"></rect> <rect x="20.5" y="22.7" fill="#FFFFFF" stroke="#1B9CC6" stroke-miterlimit="10" width="14" height="11"></rect> <g><rect x="27.5" y="14.7" fill="#FFFFFF" width="5" height="5"></rect> <path fill="#1B9CC6" d="M32,15.2v4h-4v-4H32 M33,14.2h-6v6h6V14.2L33,14.2z"></path></g></svg>