<svg version="1.1" xmlns="http://www.w3.org/2000/svg" xmlns:xlink="http://www.w3.org/1999/xlink" width="44px" height="34" viewBox="0 0 44 34" enable-background="new 0 0 44 34"><g><polygon fill="#DDECEF" points="4.5,33.8 4.5,15.3 16.5,7.8 28.5,15.3 28.5,33.8"></polygon> <g><path fill="#1B9CC6" d="M16.5,8.4L28,15.6v17.7H5V15.6L16.5,8.4 M16.5,7.3L4,15v19.3h25V15L16.5,7.3L16.5,7.3z"></path></g></g> <polyline fill="none" stroke="#1B9CC6" stroke-linecap="round" stroke-miterlimit="10" points="0.5,14.8 16.5,4.3 32.5,14.8 "></polyline> <rect x="32.5" y="24.8" fill="#DDECEF" stroke="#1B9CC6" stroke-linecap="round" stroke-miterlimit="10" width="11" height="9"></rect> <rect x="9.5" y="22.8" fill="#FFFFFF" stroke="#1B9CC6" stroke-miterlimit="10" width="14" height="11"></rect> <g><rect x="11.5" y="14.8" fill="#FFFFFF" width="5" height="5"></rect> <path fill="#1B9CC6" d="M16,15.3v4h-4v-4H16 M17,14.3h-6v6h6V14.3L17,14.3z"></path></g></svg>